<?xml version="1.0" standalone="no"?>
<!DOCTYPE svg PUBLIC "-//W3C//DTD SVG 20010904//EN"
 "http://www.w3.org/TR/2001/REC-SVG-20010904/DTD/svg10.dtd">
<svg version="1.0" xmlns="http://www.w3.org/2000/svg"
 width="796.000000pt" height="796.000000pt" viewBox="0 0 796.000000 796.000000"
 preserveAspectRatio="xMidYMid meet">
<metadata>
Created by potrace 1.14, written by Peter Selinger 2001-2017
</metadata>
<g transform="translate(0.000000,796.000000) scale(0.100000,-0.100000)"
fill="#000000" stroke="none">
<path d="M0 6440 c0 -1513 0 -1520 20 -1520 11 0 20 -4 20 -10 0 -5 -9 -10
-20 -10 -20 0 -20 -7 -20 -2450 l0 -2450 575 0 c453 0 575 3 575 13 0 6 14 52
32 101 30 80 41 96 113 170 71 73 93 89 195 139 106 51 269 109 529 186 57 17
106 29 109 26 3 -2 -6 -31 -20 -62 -38 -86 -149 -413 -148 -435 0 -13 30 -9
53 7 12 9 78 52 147 98 194 127 445 330 607 490 58 57 96 88 102 82 13 -14 41
-158 41 -209 0 -30 -12 -66 -44 -127 -50 -96 -69 -151 -63 -176 3 -13 9 -7 21
22 10 22 26 58 36 80 52 115 80 186 80 207 0 27 -35 208 -50 258 -9 30 -50
212 -95 420 -12 59 -19 70 -71 117 -64 59 -136 93 -163 76 -9 -5 -17 -23 -19
-39 -5 -55 -31 -209 -52 -308 -24 -114 -66 -203 -151 -321 -20 -28 -44 -66
-54 -85 -10 -19 -30 -51 -45 -70 -40 -52 -125 -226 -145 -297 -10 -35 -23 -68
-31 -74 -10 -8 -11 -5 -4 18 5 15 21 69 36 118 24 80 84 211 158 345 14 25 60
115 102 200 64 131 77 166 85 229 10 85 36 236 51 298 19 75 58 93 281 123
221 31 266 42 432 110 83 34 159 64 169 67 23 7 21 1 -19 -97 -15 -35 -30 -82
-33 -105 -3 -22 -16 -65 -29 -95 -49 -110 -66 -164 -54 -168 6 -2 11 -13 11
-24 0 -19 -40 -132 -76 -216 -16 -37 -19 -158 -5 -195 5 -13 6 -52 2 -87 -4
-34 -4 -86 1 -114 24 -131 91 -412 134 -561 8 -27 18 -69 21 -92 5 -39 8 -43
34 -43 35 0 36 10 10 82 -82 234 -125 446 -96 478 22 26 45 90 49 141 2 30 15
69 35 103 20 37 31 69 31 96 0 29 10 55 40 101 81 125 85 146 85 397 -1 122 2
222 6 222 8 0 49 -41 69 -69 9 -13 32 -24 60 -30 32 -5 58 -20 89 -49 39 -36
46 -39 56 -25 15 21 38 7 32 -18 -3 -11 2 -23 11 -29 15 -8 15 -11 2 -19 -10
-7 -20 -5 -31 5 -15 13 -17 13 -23 -1 -3 -9 -6 -20 -6 -24 0 -14 73 -39 147
-51 50 -8 73 -17 78 -28 6 -16 7 -16 16 0 9 17 12 17 39 3 17 -9 31 -16 32
-18 2 -1 17 8 34 20 27 19 40 22 104 18 72 -5 74 -4 102 27 15 17 30 30 32 27
2 -2 7 -26 9 -54 10 -87 36 -191 37 -144 5 166 3 159 36 189 41 36 311 187
709 395 92 49 207 115 298 173 26 17 37 31 37 48 0 17 6 24 20 24 28 0 26 -29
-11 -206 -28 -135 -29 -149 -15 -178 20 -43 98 -335 98 -366 -1 -39 -48 -147
-144 -330 -47 -91 -151 -293 -230 -450 -80 -157 -166 -320 -191 -363 -52 -87
-55 -97 -29 -97 10 0 29 21 47 52 33 56 92 128 106 128 5 0 9 -11 9 -25 0 -39
22 -30 65 27 22 29 58 73 80 99 73 86 115 143 172 234 156 250 153 245 129
245 -9 0 -16 -4 -16 -10 0 -15 -43 -51 -51 -43 -4 5 -3 32 3 62 9 41 8 73 -1
128 -12 70 -11 76 14 141 53 138 48 132 105 132 47 0 55 -4 103 -49 70 -65
120 -92 262 -140 66 -22 185 -65 265 -96 211 -81 338 -126 490 -174 129 -41
217 -73 435 -160 514 -203 605 -243 643 -284 11 -12 39 -58 62 -102 23 -44 44
-82 46 -84 2 -2 4 802 4 1788 l0 1792 -88 -2 c-83 -1 -144 8 -307 48 -63 15
-67 16 -213 56 -51 14 -132 45 -180 68 -48 23 -111 54 -140 68 -30 14 -73 43
-95 64 -23 21 -67 51 -97 66 -30 15 -73 40 -94 54 -21 15 -42 27 -45 27 -3 0
-17 17 -31 38 -32 48 -38 53 -82 80 -26 16 -35 28 -31 41 3 11 -3 31 -12 45
-15 22 -16 37 -10 89 21 161 -5 493 -50 627 -14 41 -21 50 -40 50 -32 0 -38
13 -46 90 -4 36 -12 79 -19 95 l-13 30 -7 -30 -6 -30 -7 34 c-4 18 -7 62 -7
97 0 37 -8 85 -19 116 -11 29 -22 76 -25 103 -4 34 -12 55 -26 67 -19 15 -21
24 -15 71 5 40 3 57 -8 68 -19 20 -33 139 -16 149 6 4 8 13 4 20 -6 10 -10 9
-17 -3 -5 -9 -15 -14 -24 -10 -26 10 -104 175 -104 221 0 28 36 31 45 3 7 -22
35 -36 35 -18 0 7 -7 22 -15 33 -13 19 -12 23 10 44 40 38 41 78 5 208 -18 65
-39 127 -46 139 -8 12 -14 36 -14 53 0 16 -4 30 -9 30 -9 0 -25 57 -36 125
l-7 40 26 -28 c14 -15 30 -27 35 -27 6 0 24 -13 41 -30 36 -35 50 -38 51 -10
3 39 17 81 37 103 9 10 17 26 18 35 2 9 13 25 26 36 61 49 98 85 98 95 0 6 14
14 31 18 26 5 30 10 26 30 -3 19 1 27 19 33 25 10 34 40 12 40 -21 0 5 18 32
22 14 2 34 17 47 37 13 19 23 31 23 27 0 -16 90 86 91 102 0 10 3 12 6 5 3
-10 8 -9 20 2 8 8 19 13 24 10 5 -4 9 3 9 14 0 12 7 21 15 21 8 0 20 9 27 21
14 23 112 76 230 123 42 18 93 45 112 61 33 27 196 106 224 108 6 0 12 3 12 7
0 4 6 7 13 7 6 1 64 9 127 18 141 22 141 22 323 23 l147 2 0 95 0 94 -157 4
-158 3 158 2 c132 2 157 4 157 17 0 13 -449 15 -3980 15 l-3980 0 0 -1520z
m5885 1489 c24 -1 21 -3 -15 -9 -53 -10 -91 -3 -69 11 8 5 23 7 34 4 11 -2 34
-5 50 -6z m-5480 -24 c0 -10 -6 -20 -12 -22 -8 -3 -13 5 -13 22 0 17 5 25 13
23 6 -3 12 -13 12 -23z m4078 18 c-7 -2 -19 -2 -25 0 -7 3 -2 5 12 5 14 0 19
-2 13 -5z m-2775 -145 c-5 -34 -38 -37 -38 -4 0 20 5 26 21 26 15 0 20 -5 17
-22z m-161 -34 c-9 -9 -28 6 -21 18 4 6 10 6 17 -1 6 -6 8 -13 4 -17z m-667
-384 c0 -5 -4 -10 -10 -10 -5 0 -10 5 -10 10 0 6 5 10 10 10 6 0 10 -4 10 -10z
m148 -213 c2 -10 -3 -17 -12 -17 -18 0 -29 16 -21 31 9 14 29 6 33 -14z m1090
-29 c-3 -7 -11 -13 -18 -13 -7 0 -15 6 -17 13 -3 7 4 12 17 12 13 0 20 -5 18
-12z m-1684 -334 c4 -11 1 -14 -11 -12 -9 2 -18 9 -21 16 -6 18 25 15 32 -4z
m3732 -895 c-20 -41 -36 -79 -36 -85 0 -24 -75 -172 -117 -231 -73 -103 -22
-75 116 64 50 50 91 97 91 103 0 15 87 147 102 156 16 10 1 -262 -23 -419 -26
-168 -44 -253 -69 -318 -25 -66 -25 -66 1 -43 35 31 149 210 189 297 56 121
150 391 150 431 0 9 4 16 9 16 11 0 14 -10 35 -100 45 -199 213 -636 274 -716
105 -135 133 -177 124 -186 -7 -7 -34 -6 -79 1 -37 6 -110 13 -162 16 -51 3
-96 7 -101 10 -15 9 -409 -16 -530 -35 -136 -21 -278 -59 -341 -90 -22 -12
-65 -52 -100 -95 -60 -72 -62 -74 -117 -81 -72 -9 -214 2 -257 20 -18 8 -41
28 -49 44 -9 17 -42 48 -74 69 -50 34 -76 43 -173 61 -63 12 -168 26 -234 32
-66 5 -166 15 -222 21 -57 6 -126 10 -155 9 -88 -4 -88 -4 -88 38 0 20 -9 52
-20 70 -25 41 -25 76 0 112 32 44 138 115 210 139 36 12 88 34 115 50 28 15
84 47 124 70 41 23 90 54 109 69 18 15 52 41 74 58 22 17 59 60 82 96 105 166
111 173 114 154 2 -10 -10 -46 -27 -79 -17 -33 -31 -71 -31 -85 0 -63 -195
-414 -292 -525 l-33 -37 -75 9 c-76 11 -205 13 -183 5 7 -3 10 -11 7 -18 -4
-10 16 -15 73 -19 97 -8 123 -15 123 -34 0 -10 5 -11 16 -5 11 6 35 4 68 -5
28 -8 75 -21 105 -29 29 -8 82 -26 116 -39 75 -31 75 -31 75 -1 0 13 10 30 23
39 21 15 21 16 4 34 -13 13 -33 18 -70 19 -46 0 -138 15 -189 30 -30 9 -21 22
55 78 70 52 261 253 327 344 17 24 34 42 36 39 3 -3 0 -34 -7 -68 -14 -81 -14
-294 1 -379 13 -78 67 -257 79 -264 15 -10 30 38 50 154 25 142 51 230 104
340 73 154 216 328 345 421 31 23 125 110 207 194 83 84 151 151 153 150 2 -2
-13 -36 -32 -76z m856 -754 c64 -125 284 -370 372 -415 30 -15 55 -55 42 -67
-10 -11 -146 -4 -178 8 -17 7 -43 37 -69 78 -22 36 -56 78 -74 93 -35 29 -55
78 -114 273 -44 143 -40 148 21 30z m-3976 -316 c8 -14 -18 -31 -30 -19 -9 9
0 30 14 30 5 0 12 -5 16 -11z m3430 -69 c9 0 13 3 11 8 -8 12 192 5 338 -14
85 -10 166 -32 185 -49 91 -82 57 -542 -45 -609 -29 -19 -131 -40 -295 -62
-95 -12 -177 -15 -345 -11 -265 5 -296 13 -355 88 -45 57 -56 89 -65 188 -4
41 -13 84 -22 97 -11 18 -14 47 -11 128 3 92 6 107 26 128 27 30 127 65 207
73 l60 6 -48 -31 c-44 -28 -66 -54 -55 -65 2 -2 25 6 50 19 26 13 59 28 75 35
15 6 52 24 82 41 37 21 68 30 100 31 25 0 55 4 66 8 11 5 22 4 23 0 2 -5 10
-9 18 -9z m-1846 -79 c0 -5 -19 -20 -43 -34 -23 -14 -62 -47 -86 -73 l-43 -48
6 -67 c10 -115 26 -129 50 -45 12 39 25 61 50 80 41 31 119 66 148 66 20 0 20
0 0 -32 -21 -33 -45 -118 -56 -195 -6 -45 13 -155 38 -215 15 -34 15 -38 -2
-47 -27 -16 0 -28 82 -36 39 -4 75 -10 80 -12 14 -9 -17 -23 -51 -23 -18 0
-63 -5 -100 -11 -56 -10 -86 -9 -173 5 -58 9 -111 23 -119 31 -8 8 -18 45 -23
82 -6 50 -13 72 -28 83 -29 22 -39 133 -16 178 20 39 21 149 1 214 -14 46 -13
48 11 67 25 20 59 25 252 39 12 1 22 -2 22 -7z m495 -121 c16 -31 20 -60 8
-60 -14 0 -55 69 -48 79 11 18 24 12 40 -19z m-96 -53 c35 -23 77 -50 94 -59
17 -9 33 -22 36 -27 19 -31 10 -206 -16 -294 -9 -34 -153 -78 -153 -47 0 5 9
26 19 47 23 45 45 162 38 201 -11 56 -41 128 -66 162 -58 76 -46 80 48 17z
m-44 -57 c11 -12 19 -37 19 -62 1 -37 -2 -42 -27 -49 -40 -11 -53 -3 -72 43
-14 37 -14 43 0 64 19 29 55 31 80 4z m3097 -72 c61 -42 154 -226 179 -353 17
-88 18 -247 1 -302 -18 -62 -158 -214 -392 -429 -121 -111 -228 -198 -257
-210 -24 -10 -34 -9 -69 12 -77 45 -181 20 -228 -54 -14 -22 -30 -43 -36 -47
-11 -7 -88 -117 -126 -181 -81 -135 -278 -310 -480 -425 -16 -9 -63 -38 -104
-65 -41 -26 -102 -59 -135 -73 -33 -15 -98 -47 -145 -72 -136 -74 -453 -148
-640 -149 -84 0 -181 21 -215 48 -223 171 -598 487 -676 569 -53 54 -148 196
-182 272 -13 27 -28 56 -33 63 -11 15 -40 91 -72 190 -18 54 -20 71 -11 87 10
15 8 25 -8 52 -27 44 -34 153 -25 369 l7 165 160 8 c174 8 432 46 535 79 46
15 76 32 102 59 38 40 49 69 88 229 12 47 27 91 33 97 15 16 104 33 166 33 47
0 155 -43 177 -71 6 -8 19 -37 28 -65 35 -107 120 -210 209 -255 112 -57 205
-72 467 -76 198 -3 256 -1 378 17 159 23 254 55 296 99 15 16 55 84 89 152
l62 124 50 16 c91 30 115 33 115 13 0 -20 -41 -94 -82 -146 -36 -46 -20 -49
34 -7 21 17 41 29 45 26 3 -3 -5 -55 -17 -115 -23 -119 -24 -197 -1 -197 9 0
22 30 38 88 23 88 49 147 66 147 10 0 1 -32 -19 -72 -17 -33 -17 -38 -2 -38 7
0 31 19 55 42 23 23 46 39 50 35 9 -10 -13 -125 -43 -221 -37 -117 -26 -116
70 7 35 45 77 105 94 133 17 29 50 72 74 97 36 39 72 101 142 247 15 31 107
80 138 73 13 -3 35 -14 50 -25z m-3299 -105 c7 -36 -8 -52 -29 -31 -10 10 -14
23 -9 37 9 30 32 26 38 -6z m-21 -125 c-17 -17 -47 9 -30 29 10 12 13 12 27
-1 11 -12 12 -19 3 -28z m-942 -62 c0 -11 -19 -15 -25 -6 -3 5 1 10 9 10 9 0
16 -2 16 -4z m3480 -1213 c0 -43 -16 -61 -22 -26 -5 34 0 53 13 53 5 0 9 -12
9 -27z m-3602 -109 c23 -5 34 -14 41 -37 16 -45 15 -47 -29 -47 -34 0 -42 4
-50 26 -12 32 -13 64 -1 64 5 0 22 -3 39 -6z m3500 -27 c2 -10 -4 -20 -13 -23
-21 -9 -28 0 -20 26 8 24 28 22 33 -3z m-8 -61 c0 -22 -19 -30 -35 -16 -13 10
-15 8 -15 -16 0 -16 -5 -36 -10 -44 -9 -13 -11 -13 -20 0 -8 13 -13 13 -40 -2
-29 -17 -30 -17 -20 2 6 11 16 23 23 27 6 4 17 17 23 28 10 17 40 30 82 34 6
0 12 -5 12 -13z m-5070 -31 c0 -8 -7 -15 -15 -15 -8 0 -15 7 -15 15 0 8 7 15
15 15 8 0 15 -7 15 -15z m4980 -74 c0 -11 6 -21 13 -24 6 -2 8 -8 4 -13 -4 -5
-12 -2 -18 6 -7 13 -10 13 -18 1 -6 -9 -11 -10 -15 -2 -4 6 -2 11 3 11 6 0 11
9 11 20 0 11 5 20 10 20 6 0 10 -9 10 -19z m-78 -4 c-15 -18 -3 -31 46 -47 24
-7 45 -16 47 -20 2 -3 -6 -21 -18 -40 l-22 -35 -3 27 c-2 20 -10 30 -27 34
-51 13 -78 -4 -98 -61 -2 -6 -10 -5 -20 3 -12 10 -21 11 -37 2 -41 -22 -33 0
20 52 68 67 146 127 112 85z m-188 -172 c-7 -17 -30 -20 -38 -6 -4 5 0 12 6
14 25 10 37 7 32 -8z m185 -48 c-7 -15 -16 -27 -21 -27 -11 0 -10 17 2 25 6 3
10 16 10 28 0 15 3 18 10 11 8 -8 7 -19 -1 -37z m-319 -44 c-1 -5 -13 -26 -29
-48 -28 -41 -52 -48 -93 -30 -13 5 -18 3 -18 -9 0 -9 -5 -16 -11 -16 -6 0 -9
-6 -6 -12 6 -19 -11 -48 -36 -59 -12 -5 -37 -21 -56 -34 -35 -25 -85 -33 -96
-15 -11 17 -45 -9 -45 -34 0 -45 -22 -51 -164 -49 -107 2 -135 0 -156 -14 -28
-19 -93 -26 -220 -25 -128 0 -183 6 -187 18 -3 8 34 13 114 17 65 3 150 12
188 21 139 31 229 56 282 81 30 13 70 27 91 30 33 5 81 25 174 72 14 7 32 13
40 13 7 0 51 22 98 50 77 45 131 62 130 43z m-3881 -57 c9 -10 8 -16 -4 -26
-20 -16 -45 -6 -45 20 0 23 31 28 49 6z m3971 -112 c0 -8 -4 -12 -10 -9 -5 3
-10 13 -10 21 0 8 5 12 10 9 6 -3 10 -13 10 -21z m653 -120 c20 -4 37 -11 37
-16 0 -12 -101 0 -114 13 -12 11 22 12 77 3z m-298 -134 c3 -5 1 -10 -4 -10
-6 0 -11 5 -11 10 0 6 2 10 4 10 3 0 8 -4 11 -10z m-135 -35 c0 -13 -4 -14
-20 -5 -11 6 -20 13 -20 15 0 3 9 5 20 5 11 0 20 -7 20 -15z m90 5 c0 -5 -7
-10 -15 -10 -8 0 -15 5 -15 10 0 6 7 10 15 10 8 0 15 -4 15 -10z m36 -25 c4
-8 11 -12 18 -9 6 3 -3 -7 -20 -23 -31 -28 -118 -80 -162 -96 -12 -5 -63 -31
-113 -58 -49 -27 -95 -49 -100 -49 -5 0 -31 -11 -57 -25 -25 -14 -50 -21 -55
-16 -4 4 0 24 9 44 15 31 22 36 53 36 20 0 44 1 54 1 33 2 125 51 141 75 8 12
27 26 43 29 40 10 144 58 139 64 -3 2 -1 13 5 23 12 23 37 25 45 4z m-96 -5
c0 -5 -4 -10 -10 -10 -5 0 -10 5 -10 10 0 6 5 10 10 10 6 0 10 -4 10 -10z
m160 6 c0 -3 -4 -8 -10 -11 -5 -3 -10 -1 -10 4 0 6 5 11 10 11 6 0 10 -2 10
-4z m-2490 -457 c11 -19 10 -20 -9 -9 -22 11 -29 30 -11 30 5 0 14 -9 20 -21z
m127 -481 c-3 -8 -6 -5 -6 6 -1 11 2 17 5 13 3 -3 4 -12 1 -19z m2678 12 c8
-13 -23 -72 -34 -65 -10 6 8 75 20 75 4 0 11 -4 14 -10z m-3468 -652 c-3 -8
-6 -5 -6 6 -1 11 2 17 5 13 3 -3 4 -12 1 -19z"/>
<path d="M3935 5480 c-3 -5 -2 -10 4 -10 5 0 13 5 16 10 3 6 2 10 -4 10 -5 0
-13 -4 -16 -10z"/>
<path d="M4505 5093 c-110 -4 -269 -24 -355 -44 -110 -27 -230 -92 -230 -126
0 -30 20 -30 106 3 118 44 246 82 334 98 131 24 284 46 321 46 24 1 29 3 19 9
-18 10 -113 17 -195 14z"/>
<path d="M2669 4873 c-13 -16 -12 -17 4 -4 16 13 21 21 13 21 -2 0 -10 -8 -17
-17z"/>
<path d="M4495 4740 c-67 -8 -147 -41 -247 -101 -57 -35 -67 -45 -66 -67 1
-15 -2 -39 -6 -54 -11 -39 9 -36 54 6 49 47 163 122 206 136 39 13 60 4 30
-14 -96 -57 -131 -141 -131 -316 0 -107 2 -118 28 -162 32 -55 34 -68 7 -68
-25 0 -26 -15 -2 -25 9 -5 76 -10 147 -12 106 -3 141 0 190 15 55 17 60 21 61
48 1 16 7 56 14 89 17 85 10 250 -13 272 -15 16 -17 16 -17 1 0 -16 -44 -58
-61 -58 -18 0 -49 45 -49 71 0 51 36 68 93 44 45 -19 -6 51 -73 98 l-25 18 48
-5 c136 -16 247 -122 247 -237 0 -46 12 -89 25 -89 14 0 28 52 42 148 7 49 6
70 -4 90 -64 123 -282 199 -498 172z m140 -456 c-18 -44 -30 -54 -65 -54 -26
0 -70 25 -70 39 0 5 19 6 43 4 37 -4 45 -1 71 26 16 17 31 29 33 27 2 -2 -3
-21 -12 -42z m-177 -108 c-4 -31 -38 -34 -38 -3 0 29 7 37 27 30 8 -3 13 -15
11 -27z"/>
<path d="M2473 4628 c-24 -11 -32 -38 -12 -38 12 0 79 39 79 46 0 8 -45 3 -67
-8z"/>
<path d="M6016 4223 c-11 -11 -7 -20 9 -20 8 0 15 4 15 8 0 11 -16 20 -24 12z"/>
<path d="M5972 4177 c-21 -22 -20 -37 0 -37 9 0 31 50 25 56 -2 2 -13 -7 -25
-19z"/>
<path d="M5865 4062 c-22 -25 -48 -58 -57 -73 -20 -32 -39 -99 -29 -99 13 0
31 24 31 40 0 8 7 26 16 38 13 18 19 21 30 11 18 -15 32 -3 16 13 -18 18 -15
36 14 74 40 51 25 49 -21 -4z"/>
<path d="M6111 3974 c0 -11 3 -14 6 -6 3 7 2 16 -1 19 -3 4 -6 -2 -5 -13z"/>
<path d="M5980 3944 c0 -8 5 -12 10 -9 6 4 8 11 5 16 -9 14 -15 11 -15 -7z"/>
<path d="M3350 3922 c-28 -38 -101 -202 -89 -202 9 0 59 92 59 109 0 6 14 33
30 62 34 57 34 77 0 31z"/>
<path d="M5905 3925 c4 -11 10 -30 12 -43 3 -12 9 -25 13 -27 12 -7 -10 68
-22 80 -8 7 -9 4 -3 -10z"/>
<path d="M5991 3904 c0 -11 3 -14 6 -6 3 7 2 16 -1 19 -3 4 -6 -2 -5 -13z"/>
<path d="M5770 3845 c0 -24 5 -35 15 -35 16 0 18 12 9 48 -10 34 -24 26 -24
-13z"/>
<path d="M5706 3656 c-6 -30 -24 -55 -74 -107 -37 -37 -74 -76 -83 -86 -24
-29 -53 -118 -45 -139 6 -16 9 -15 27 13 20 32 49 47 109 57 19 3 55 10 80 15
30 7 55 6 76 -1 27 -10 38 -7 93 22 84 45 206 150 220 191 22 63 7 67 -29 7
-14 -22 -58 -67 -98 -99 -84 -66 -170 -103 -220 -95 -18 3 -43 1 -55 -3 -12
-5 -50 -12 -84 -16 -48 -5 -63 -4 -63 6 0 7 38 52 85 100 84 86 91 98 76 149
-7 23 -8 22 -15 -14z"/>
<path d="M3205 3489 c-11 -17 4 -60 47 -136 29 -51 47 -73 61 -73 10 0 17 3
15 8 -1 4 -15 32 -30 62 -14 30 -35 76 -47 103 -20 46 -33 57 -46 36z"/>
<path d="M3516 3351 c5 -4 23 -11 39 -15 28 -6 29 -5 11 9 -21 16 -67 22 -50
6z"/>
<path d="M3432 2939 c-44 -9 -50 -17 -20 -24 35 -9 113 -2 111 10 -3 14 -53
22 -91 14z"/>
<path d="M3280 2889 c0 -25 30 -30 203 -36 131 -5 157 -3 157 8 0 24 -77 38
-223 41 -121 3 -137 1 -137 -13z"/>
<path d="M3972 2893 c-23 -2 -40 -8 -37 -14 8 -12 282 -12 289 0 3 5 -4 11
-17 15 -23 6 -160 5 -235 -1z"/>
<path d="M6200 6065 c0 -5 5 -17 10 -25 5 -8 10 -10 10 -5 0 6 -5 17 -10 25
-5 8 -10 11 -10 5z"/>
<path d="M5417 1618 c-30 -30 -40 -92 -11 -67 21 17 46 67 41 82 -2 7 -14 0
-30 -15z"/>
<path d="M3686 1441 c-6 -10 22 -37 29 -29 8 7 -5 38 -15 38 -5 0 -11 -4 -14
-9z"/>
<path d="M4520 1253 c0 -3 8 -15 18 -26 14 -16 17 -41 18 -161 1 -114 5 -153
22 -206 11 -36 23 -91 26 -122 4 -49 2 -59 -14 -68 -12 -7 -22 -29 -30 -67 -6
-32 -19 -96 -30 -143 -10 -47 -22 -103 -26 -125 -9 -59 -83 -293 -94 -300 -6
-3 -10 -13 -10 -21 0 -12 35 -14 220 -14 l220 0 0 28 c0 15 -11 63 -24 107
-13 44 -36 134 -51 200 -47 206 -93 376 -131 485 -35 99 -38 114 -43 258 -5
137 -8 155 -25 168 -21 15 -46 19 -46 7z"/>
<path d="M4411 1033 l-1 -82 -60 -46 c-33 -25 -63 -52 -67 -60 -15 -26 -216
-186 -288 -228 -38 -23 -103 -53 -145 -67 l-75 -26 -8 -59 c-4 -34 -3 -109 3
-171 5 -60 10 -117 10 -125 0 -8 -25 -47 -55 -88 -30 -41 -55 -76 -55 -78 0
-1 12 -3 28 -2 22 0 35 13 76 75 l49 75 -7 82 c-5 45 -11 118 -15 162 -4 44
-6 85 -3 92 2 6 32 23 67 37 110 44 265 149 340 231 38 41 173 154 205 170
l33 17 -7 64 c-11 106 -25 121 -25 27z"/>
<path d="M4181 228 c-44 -71 -62 -118 -46 -118 14 0 125 173 125 195 0 3 -7 5
-14 5 -8 0 -38 -37 -65 -82z"/>
<path d="M2795 255 c10 -45 71 -118 178 -212 l48 -43 140 0 c76 0 139 4 139 8
0 5 -18 32 -40 62 -22 29 -42 61 -45 72 -4 10 -13 18 -21 18 -10 0 -14 -13
-14 -49 0 -72 -11 -77 -114 -48 -70 20 -97 34 -152 78 -37 30 -80 74 -97 99
-26 40 -29 42 -22 15z"/>
<path d="M7645 141 c-4 -7 -4 -41 0 -77 6 -58 9 -64 29 -64 22 0 22 3 15 47
-4 27 -8 53 -8 59 -1 5 -7 18 -14 29 -10 13 -16 15 -22 6z"/>
<path d="M6593 107 c-23 -24 -53 -80 -53 -97 0 -5 10 -10 23 -10 18 0 25 10
41 60 10 34 17 63 14 65 -3 3 -14 -5 -25 -18z"/>
<path d="M7373 47 c-29 -42 -29 -47 1 -47 25 0 56 36 56 65 0 27 -34 16 -57
-18z"/>
</g>
</svg>
